<?xml version="1.0" standalone="no"?><!DOCTYPE svg PUBLIC "-//W3C//DTD SVG 1.1//EN" "http://www.w3.org/Graphics/SVG/1.1/DTD/svg11.dtd"><svg t="1605159479859" class="icon" viewBox="0 0 1024 1024" version="1.1" xmlns="http://www.w3.org/2000/svg" p-id="1658" xmlns:xlink="http://www.w3.org/1999/xlink" width="200" height="200"><defs><style type="text/css"></style></defs><path d="M945.5 894.1L799.6 745.7c55.8-71.6 89.2-162.2 89.3-260.7 0.1-170-100.5-323.2-254.7-388.2s-331.7-29.1-449.7 91.1C66.5 308 31.2 488.7 95.1 645.7 158.9 802.7 309.4 905 476.3 905c104.7-0.1 200.3-39.9 273.1-105.4l144.5 147.1c6.8 7 16.1 11 25.8 10.9 9.7 0.1 19-3.8 25.8-10.9 7-6.9 10.9-16.4 10.9-26.3 0-9.9-4-19.4-10.9-26.3z m-469.2-60.5c-188.3 0-341-155.4-341-347.2 0-191.7 152.7-347.2 341-347.2 90.4 0 177.2 36.6 241.1 101.7 64 65.1 99.9 153.4 99.9 245.5 0 191.8-152.7 347.2-341 347.2z" fill="#999999" p-id="1659"></path></svg>