<?xml version="1.0" standalone="no"?><!DOCTYPE svg PUBLIC "-//W3C//DTD SVG 1.1//EN" "http://www.w3.org/Graphics/SVG/1.1/DTD/svg11.dtd"><svg t="1605159512854" class="icon" viewBox="0 0 1024 1024" version="1.1" xmlns="http://www.w3.org/2000/svg" p-id="1794" xmlns:xlink="http://www.w3.org/1999/xlink" width="200" height="200"><defs><style type="text/css"></style></defs><path d="M864.6 111.7H160.5c-52.9 0-96 44.2-96 98.4v459.3c0 54.2 43.1 98.4 96 98.4H364l148.5 143.5L661 767.8h203.6c52.9 0 96-44.2 96-98.4V210.1c0.1-54.2-43-98.4-96-98.4zM288.5 505.3c-35.3 0-64-29.3-64-65.6 0-36.2 28.7-65.6 64-65.6s64 29.4 64 65.6c0.1 36.3-28.6 65.6-64 65.6z m224.1 0c-35.3 0-64-29.3-64-65.6 0-36.2 28.7-65.6 64-65.6s64 29.4 64 65.6c0 36.3-28.7 65.6-64 65.6z m224 0c-35.3 0-64-29.3-64-65.6 0-36.2 28.7-65.6 64-65.6s64 29.4 64 65.6c0 36.3-28.7 65.6-64 65.6z m0 0" fill="#999999" p-id="1795"></path></svg>