<?xml version="1.0" standalone="no"?><!DOCTYPE svg PUBLIC "-//W3C//DTD SVG 1.1//EN" "http://www.w3.org/Graphics/SVG/1.1/DTD/svg11.dtd"><svg t="1605159517788" class="icon" viewBox="0 0 1024 1024" version="1.1" xmlns="http://www.w3.org/2000/svg" p-id="1936" xmlns:xlink="http://www.w3.org/1999/xlink" width="200" height="200"><defs><style type="text/css"></style></defs><path d="M861.4 106.7H158.7c-52.1 0-94.6 41.5-94.6 92.6v500.9c0 51 42.4 92.6 94.6 92.6h211.8l118.1 114.7c6.2 6 14.3 9 22.4 9 8.1 0 16.2-3 22.4-9l118.1-114.7h209.8c52.1 0 94.6-41.5 94.6-92.6V199.3c0.1-51.1-42.3-92.6-94.5-92.6z m30.9 593.5c0 16.7-13.8 30.2-30.9 30.2h-223c-8.4 0-16.5 3.2-22.4 9l-105 102-105-102c-6-5.8-14-9-22.4-9H158.7c-17 0-30.9-13.6-30.9-30.2V199.3c0-16.7 13.8-30.2 30.9-30.2h702.7c17 0 30.9 13.6 30.9 30.2v500.9z m-636-314.8c-35.2 0-63.7 27.9-63.7 62.4 0 34.4 28.5 62.4 63.7 62.4s63.7-27.9 63.7-62.4-28.6-62.4-63.7-62.4z m254.8 0c-35.2 0-63.7 27.9-63.7 62.4 0 34.4 28.5 62.4 63.7 62.4s63.7-27.9 63.7-62.4-28.5-62.4-63.7-62.4z m254.8 0c-35.2 0-63.7 27.9-63.7 62.4 0 34.4 28.5 62.4 63.7 62.4s63.7-27.9 63.7-62.4-28.5-62.4-63.7-62.4z" fill="#999999" p-id="1937"></path></svg>