<?xml version="1.0" standalone="no"?><!DOCTYPE svg PUBLIC "-//W3C//DTD SVG 1.1//EN" "http://www.w3.org/Graphics/SVG/1.1/DTD/svg11.dtd"><svg t="1605159475385" class="icon" viewBox="0 0 1024 1024" version="1.1" xmlns="http://www.w3.org/2000/svg" p-id="1516" xmlns:xlink="http://www.w3.org/1999/xlink" width="200" height="200"><defs><style type="text/css"></style></defs><path d="M943.1 876.7L797.5 731c55.7-70.3 89.1-159.1 89.2-255.8 0-166.7-100.4-317-254.3-380.8-154-63.8-331.2-28.5-449 89.3C65.5 301.7 30.3 479 94 633c63.8 154 214 254.5 380.7 254.5 104.6-0.1 200-39.2 272.6-103.4l144.2 144.3c6.8 6.9 16.1 10.8 25.8 10.7 9.7 0.1 19-3.8 25.8-10.7 7-6.8 10.9-16.1 10.9-25.8 0-9.8-3.9-19.1-10.9-25.9z" fill="#999999" p-id="1517"></path></svg>